<?xml version="1.0" encoding="UTF-8" standalone="no"?>
<!DOCTYPE svg PUBLIC "-//W3C//DTD SVG 1.1//EN" "http://www.w3.org/Graphics/SVG/1.1/DTD/svg11.dtd">
<svg width="100%" height="100%" viewBox="0 0 909 430" version="1.1" xmlns="http://www.w3.org/2000/svg" xmlns:xlink="http://www.w3.org/1999/xlink" xml:space="preserve" xmlns:serif="http://www.serif.com/" style="fill-rule:evenodd;clip-rule:evenodd;stroke-linecap:square;stroke-linejoin:round;stroke-miterlimit:27;">
    <g transform="matrix(1,0,0,1,-173.865,-97.5971)">
        <g transform="matrix(4.16667,0,0,4.16667,0,0)">
            <g transform="matrix(0.24,0,0,0.24,0,0)">
                <path d="M557.143,480.412C557.356,477.454 557.701,473.994 558.092,469.882C558.407,466.575 559.017,463.844 559.861,461.606C557.47,459.771 555.098,457.924 552.75,456.062C553.522,459.687 553.879,462.311 553.879,462.311C535.317,457.553 525.604,439.12 525.683,439.282C531.792,451.349 527.275,456.357 527.275,456.357C482.796,422.999 482,388.045 480.212,359.057C479.515,347.782 479.549,337.58 480.004,328.749C475.096,320.899 470.787,312.635 467.143,304.022C458.218,282.926 434.418,224.097 443.343,161.922C447.726,131.314 447.76,105.93 447.76,105.93C447.76,105.93 491.735,131.943 522.776,126.976C553.83,122.014 552.576,107.505 629.622,107.505C706.664,107.505 705.414,122.014 736.464,126.976C767.518,131.943 809.226,105.93 809.226,105.93C809.226,105.93 809.93,132.105 815.91,161.922C827.447,219.472 801.03,282.926 792.101,304.022C788.513,312.511 784.276,320.661 779.453,328.413C779.927,337.315 779.971,347.635 779.265,359.057C777.477,388.045 776.685,422.999 732.202,456.357C732.202,456.357 729.101,452.922 731.508,444.887L732.789,441.461L732.707,441.532C729.969,446.731 721.938,459.422 707.369,463.161C707.369,463.161 707.402,462.484 707.495,461.339C705.666,462.656 703.833,463.957 702.002,465.239C702.319,466.646 702.562,468.189 702.724,469.88C703.073,473.561 703.387,476.719 703.601,479.465C929.444,470.439 1074.29,429.525 1074.29,429.525C1074.29,429.525 935.072,481.214 703.065,492.245C701.863,495.994 699.194,498.562 694.049,501.676C684.745,507.314 676.395,509.585 676.395,509.585L675.984,507.995C674.279,509.148 672.124,510.141 669.363,511.148C659.15,514.894 650.53,515.51 650.53,515.51L650.269,498.972C648.433,500.181 646.765,501.308 645.291,502.344C635.591,509.165 629.624,519.123 629.624,519.123C629.624,519.123 623.457,508.731 613.657,501.31C612.635,500.536 611.61,499.764 610.584,498.994L610.284,515.509C610.284,515.509 601.659,514.892 591.442,511.151C588.658,510.133 586.49,509.13 584.779,507.962L584.417,509.582C584.417,509.582 576.071,507.312 566.767,501.678C562.157,498.888 559.534,496.537 558.174,493.384C311.9,485.512 182.198,429.525 182.198,429.525C182.198,429.525 318.297,473.884 557.143,480.412Z" style="fill:white;fill-rule:nonzero;stroke:white;stroke-width:16.67px;"/>
            </g>
        </g>
        <g transform="matrix(4.16667,0,0,4.16667,0,0)">
            <g transform="matrix(0.24,0,0,0.24,0,0)">
                <path d="M504.121,359.258C488.539,343.471 475.916,324.755 467.143,304.022C458.218,282.926 434.418,224.097 443.343,161.922C447.726,131.314 447.76,105.93 447.76,105.93C447.76,105.93 491.735,131.943 522.776,126.976C553.83,122.014 552.576,107.505 629.622,107.505C706.664,107.505 705.414,122.014 736.464,126.976C767.518,131.943 809.226,105.93 809.226,105.93C809.226,105.93 809.93,132.105 815.91,161.922C827.447,219.472 801.03,282.926 792.101,304.022C783.85,323.54 772.173,341.271 757.836,356.455C759.868,369.883 761.079,390.182 754.244,404.841C736.528,442.833 673.344,480.258 644.348,496.112C635.328,501.049 629.623,505.12 629.623,505.12C629.623,505.12 624.319,500.808 615.907,495.591C588.694,478.695 528.878,438.437 510.461,404.841C502.76,390.775 502.729,372.423 504.121,359.258Z" style="fill:rgb(190,61,84);fill-rule:nonzero;"/>
            </g>
        </g>
        <g transform="matrix(4.16667,0,0,4.16667,0,0)">
            <g transform="matrix(0.24,0,0,0.24,0,0)">
                <path d="M779.449,328.337C779.927,337.257 779.973,347.603 779.265,359.057C777.477,388.045 776.685,422.999 732.202,456.357C732.202,456.357 729.101,452.922 731.508,444.887L732.789,441.461L732.707,441.532C729.969,446.731 721.938,459.422 707.369,463.161C707.369,463.161 707.402,462.484 707.495,461.339C682.849,479.09 657.453,493.797 645.291,502.344C635.591,509.165 629.624,519.123 629.624,519.123C629.624,519.123 623.458,508.731 613.658,501.31C593.201,485.819 572.139,471.438 552.75,456.062C553.522,459.687 553.879,462.311 553.879,462.311C535.317,457.553 525.604,439.12 525.683,439.282C531.792,451.349 527.275,456.357 527.275,456.357C482.796,422.999 482,388.045 480.213,359.057C479.513,347.75 479.549,337.523 480.008,328.675C480.008,328.675 483.079,333.495 483.079,333.495L484.321,335.256L484.702,335.838L485.626,337.106L487.886,340.31L489.036,341.786L489.736,342.748L491.122,344.466L493.003,346.883L494.152,348.223L495.096,349.394L496.678,351.172L498.418,353.202L499.649,354.508L500.77,355.768L500.781,355.71L504.121,359.258C502.729,372.423 502.76,390.775 510.461,404.841C528.878,438.437 588.694,478.695 615.907,495.591C624.319,500.808 629.623,505.12 629.623,505.12C629.623,505.12 635.328,501.049 644.348,496.112C673.344,480.258 736.528,442.833 754.244,404.841C761.079,390.182 759.868,369.883 757.836,356.455L762.009,351.835L762.019,351.866L762.553,351.233L763.086,350.643L764.745,348.635L766.737,346.274L767.357,345.474L768.078,344.601L769.771,342.356L771.221,340.484L771.809,339.655L772.802,338.339L774.672,335.616L775.462,334.503L775.854,333.897L777.251,331.864L779.449,328.337Z" style="fill:rgb(26,63,98);"/>
            </g>
        </g>
        <g transform="matrix(4.16667,0,0,4.16667,0,0)">
            <g transform="matrix(0.24,0,0,0.24,0,0)">
                <path d="M611.399,400.96C595.109,399.483 579.529,395.95 565.018,390.675C545.431,383.546 527.806,373.238 512.985,360.5C498.181,347.754 486.189,332.588 477.906,315.738C469.618,298.892 465.043,280.371 465.043,260.938C465.043,241.488 469.618,222.967 477.906,206.129C491.077,173.012 528.264,152.508 569.868,155.288C603.406,157.529 628.748,181.667 628.748,181.667C628.748,181.667 661.402,149.579 706.164,155.208C742.589,158.154 767.952,182.513 779.577,206.129C791.202,229.746 792.443,241.488 792.443,260.938C792.443,280.371 789.068,298.892 780.781,315.738C772.51,332.588 759.314,347.754 744.502,360.5C729.685,373.238 712.043,383.546 692.464,390.675C675.092,396.99 656.196,400.809 636.373,401.591C623.316,408.577 610.312,409.052 610.312,409.052L611.399,400.96Z" style="fill:rgb(242,222,160);fill-rule:nonzero;"/>
            </g>
        </g>
        <g transform="matrix(4.16667,0,0,4.16667,0,0)">
            <g transform="matrix(0.24,0,0,0.24,0,0)">
                <path d="M610.603,320.475C610.603,320.475 682.833,305.567 671.628,363.079C664.741,398.308 661.545,405.85 639.074,411.75C620.853,416.546 605.87,416.213 605.87,416.213L610.603,320.475ZM615.841,407.117C615.841,407.117 655.945,399.675 660.699,362.396C665.449,325.096 625.353,332.521 625.353,332.521L615.841,407.117ZM550.574,196.037C550.574,196.037 534.145,206.228 525.899,233.716C514.636,271.245 538.178,300.803 578.349,299.733C623.482,298.533 633.161,219.362 633.161,219.362C633.161,219.362 636.245,297.674 680.228,298.574C719.599,299.383 740.528,257.228 732.361,228.987C725.745,206.12 711.22,193.895 711.22,193.895C711.22,193.895 736.561,276.358 679.065,276.578C651.29,276.683 632.77,200.17 632.77,200.17C632.77,200.17 618.874,278.895 577.195,278.895C518.34,278.895 550.574,196.037 550.574,196.037ZM452.56,112.541C452.56,112.541 472.605,154.641 533.518,149.47C601.026,143.741 628.747,185.816 628.747,185.816C628.747,185.816 654.251,143.141 728.122,149.47C798.58,155.516 806.451,110.432 806.426,110.453C793.018,122.07 787.66,132.795 750.364,134.587C716.218,136.22 715.38,111.549 627.997,111.549C540.639,111.549 542.255,135.02 517.622,134.587C483.472,133.978 479.368,128.62 452.56,112.541Z" style="fill:rgb(26,63,98);fill-rule:nonzero;"/>
            </g>
        </g>
        <g transform="matrix(4.16667,0,0,4.16667,0,0)">
            <g transform="matrix(-0.696359,0.717694,0.717694,0.696359,152.24,104.587)">
                <path d="M4.607,-16.818C4.607,-16.818 11.675,-7.473 5.235,-8.638C5.235,-8.638 8.906,-3.284 4.607,-0.085C4.607,-0.085 10.101,-1.128 7.274,-7.557C7.274,-7.557 13.169,-8.91 4.607,-16.818" style="fill:rgb(26,63,98);fill-rule:nonzero;"/>
            </g>
        </g>
        <g transform="matrix(4.16667,0,0,4.16667,0,0)">
            <g transform="matrix(-0.67794,-0.735118,-0.735118,0.67794,154.186,105.003)">
                <path d="M-1.512,-12.648C-1.512,-12.648 -6.247,-5.656 -1.284,-7.023C-1.284,-7.023 -5.497,-2.101 -1.512,-2.277C-1.512,-2.277 -6.058,0.102 -3.349,-5.994C-3.349,-5.994 -9.414,-6.137 -1.512,-12.648" style="fill:rgb(26,63,98);fill-rule:nonzero;"/>
            </g>
        </g>
        <g transform="matrix(4.16667,0,0,4.16667,0,0)">
            <g transform="matrix(0,1,1,0,158.552,3.8074)">
                <path d="M99.278,-114.824C99.278,-114.824 111.684,-76.764 111.684,-10.701C111.684,55.361 99.278,99.278 99.278,99.278C99.278,99.278 114.825,57.407 114.825,-10.701C114.825,-78.81 99.278,-114.824 99.278,-114.824" style="fill:rgb(26,63,98);fill-rule:nonzero;"/>
            </g>
        </g>
        <g transform="matrix(4.16667,0,0,4.16667,0,0)">
            <g transform="matrix(0.24,0,0,0.24,0,0)">
                <path d="M680.603,500.472C680.603,500.472 699.524,488.63 696.224,471.776C692.911,454.93 675.745,461.664 675.745,461.664L680.603,500.472Z" style="fill:rgb(242,222,160);fill-rule:nonzero;"/>
            </g>
        </g>
        <g transform="matrix(4.16667,0,0,4.16667,0,0)">
            <g transform="matrix(0.24,0,0,0.24,0,0)">
                <path d="M585.071,461.662C585.071,461.662 567.9,454.933 564.596,471.778C561.288,488.633 580.204,500.47 580.204,500.47L585.071,461.662Z" style="fill:rgb(242,222,160);fill-rule:nonzero;"/>
            </g>
        </g>
        <g transform="matrix(4.16667,0,0,4.16667,0,0)">
            <g transform="matrix(0.24,0,0,0.24,0,0)">
                <path d="M666.527,459.999C674.683,454.95 700.029,441.685 702.724,469.88C704.682,490.51 705.515,494.735 694.049,501.676C684.745,507.314 676.395,509.585 676.395,509.585L675.984,507.995C674.279,509.148 672.124,510.141 669.363,511.148C659.15,514.894 650.53,515.51 650.53,515.51L649.713,463.631C649.713,463.631 658.05,460.162 666.527,459.999ZM584.779,507.962L584.417,509.583C584.417,509.583 576.071,507.312 566.767,501.678C555.296,494.737 556.133,490.512 558.092,469.883C560.963,439.762 588.253,457.431 593.958,461.478C602.58,462.209 611.176,466.413 611.176,466.413L610.284,515.509C610.284,515.509 601.659,514.893 591.443,511.151C588.658,510.133 586.49,509.13 584.779,507.962ZM665.741,468.342C662.149,467.817 659.109,468.369 659.109,468.369L656.409,507.381C656.409,507.381 666.573,503.494 672.706,495.307L665.741,468.342ZM587.725,494.784C593.809,503.328 604.401,507.38 604.401,507.38L601.701,468.368C601.701,468.368 597.774,467.654 593.574,468.62L587.725,494.784ZM584.975,462.424L585.071,461.662C585.071,461.662 567.9,454.933 564.596,471.778C561.73,486.377 575.54,497.212 579.287,499.85C578.138,495.742 577.644,490.043 576.809,481.626C575.645,469.874 579.485,464.474 584.975,462.424ZM681.531,499.845C685.294,497.193 699.08,486.362 696.224,471.776C693.051,455.64 677.165,461.139 675.833,461.63C681.327,464.115 685.172,469.852 684.005,481.623C683.172,490.038 682.678,495.736 681.531,499.845Z" style="fill:rgb(26,63,98);fill-rule:nonzero;"/>
            </g>
        </g>
        <g transform="matrix(4.16667,0,0,4.16667,0,0)">
            <g transform="matrix(0.24,0,0,0.24,0,0)">
                <path d="M656.409,507.381C656.409,507.381 677.259,499.406 677.259,482.244C677.259,465.073 659.109,468.369 659.109,468.369L656.409,507.381Z" style="fill:rgb(242,222,160);fill-rule:nonzero;"/>
            </g>
        </g>
        <g transform="matrix(4.16667,0,0,4.16667,0,0)">
            <g transform="matrix(0.24,0,0,0.24,0,0)">
                <path d="M601.701,468.368C601.701,468.368 583.555,465.072 583.555,482.243C583.555,499.405 604.401,507.38 604.401,507.38L601.701,468.368Z" style="fill:rgb(242,222,160);fill-rule:nonzero;"/>
            </g>
        </g>
    </g>
</svg>
